# xmcd
#
# Track frame offsets:
#	150
#	17922
#	36360
#	53980
#	73000
#	90680
#	108685
#	123392
#	139472
#	160517
#	174410
#	194250
#	209972
#	224202
#	240600
#	253780
#
# Disc length: 3610
#
# Revision: 1
# Processed by: cddbd v1.5.1PL0 Copyright (c) Steve Scherf et al.
# Submitted via: VisiTrax 2.9.5.180 - For more info visit www.synapsa.com
# Normalized: r0:DSETVAR1
#
DISCID=010e1810
DTITLE=Various Artist - CDX 224 October 1999
DYEAR=1999
DGENRE=
TTITLE0=Doug Supernaw - 21 to 17
TTITLE1=Dolly Parton - A few old memories
TTITLE2=Jo Dee Messina - Because you love me
TTITLE3=Faith Hill - Breathe
TTITLE4=Lee Ann Womack - Don't tell me
TTITLE5=Bryan White - God gave me you
TTITLE6=Mavericks - Here comes my baby
TTITLE7=Roy D Mercer - How big a boy are ya
TTITLE8=Barbara Strisand/Vince Gill - If you ever leave me
TTITLE9=Ricky Van Shelton - I wish you were more like your memory
TTITLE10=Larry Cordle& Lonesome Standard Time - Murder on music row
TTITLE11=Dan Seals - Nights are forever without you
TTITLE12=Alan Jackson - Pop a top
TTITLE13=Jim Cartwright - Love letters
TTITLE14=Joanie Keller - Run that by me one more time
TTITLE15=Kenny Rogers - Buy me a rose
EXTD=
EXTT0=
EXTT1=
EXTT2=
EXTT3=
EXTT4=
EXTT5=
EXTT6=
EXTT7=
EXTT8=
EXTT9=
EXTT10=
EXTT11=
EXTT12=
EXTT13=
EXTT14=
EXTT15=
PLAYORDER=
